Coordinates
version=1
nRows=29
nColumns=38
inDegrees=no

Units are S.I. units (second, meters, Newtons, ...)
If the header above contains a line with 'inDegrees', this indicates whether rotational values are in degrees (yes) or radians (no).

endheader
time	pelvis_tilt	pelvis_list	pelvis_rotation	pelvis_tx	pelvis_ty	pelvis_tz	hip_flexion_r	hip_adduction_r	hip_rotation_r	knee_angle_r	ankle_angle_r	subtalar_angle_r	mtp_angle_r	hip_flexion_l	hip_adduction_l	hip_rotation_l	knee_angle_l	ankle_angle_l	subtalar_angle_l	mtp_angle_l	lumbar_extension	lumbar_bending	lumbar_rotation	arm_flex_r	arm_add_r	arm_rot_r	elbow_flex_r	pro_sup_r	wrist_flex_r	wrist_dev_r	arm_flex_l	arm_add_l	arm_rot_l	elbow_flex_l	pro_sup_l	wrist_flex_l	wrist_dev_l
0	-0.155661	0.0244562	-3.06341	-0.317668	0.933961	-0.00574872	-0.507456	0.1049	-0.0597028	0.156921	0.358825	0	0	0.417072	0.0118768	0.0721491	0.192552	0.100978	0	0	-0.345894	0.0220492	0.375081	0.363693	-0.679866	0.570441	1.16217	0.831912	0	0	-0.0118951	-0.257348	-1.5708	0.0592216	-1.29467e-09	0	0
0.00999063	-0.158216	0.0183188	-3.08663	-0.319689	0.933542	-0.00659034	-0.505148	0.0835907	-0.0514432	0.192499	0.33307	0	0	0.414083	0.0087011	0.0443861	0.219299	0.0760172	0	0	-0.346782	0.00628529	0.397801	0.35066	-0.672701	0.569659	1.14982	0.825879	0	0	-0.00552588	-0.2566	-1.5708	0.0561278	-7.95246e-10	0	0
0.0199813	-0.160761	0.0121277	-3.10971	-0.321732	0.933134	-0.00740326	-0.502594	0.0621978	-0.0435476	0.228432	0.306938	0	0	0.411072	0.00564917	0.0167614	0.246061	0.0514371	0	0	-0.347592	-0.00945694	0.420352	0.337542	-0.665461	0.569021	1.13728	0.819777	0	0	0.000878248	-0.255713	-1.5708	0.053175	-2.82955e-10	0	0
0.0299719	-0.163259	0.00579704	-3.13213	-0.323839	0.932746	-0.00811377	-0.4995	0.0407175	-0.0366905	0.265084	0.279788	0	0	0.408049	0.0030476	-0.0102437	0.272903	0.0279127	0	0	-0.348149	-0.0250523	0.442195	0.324194	-0.658004	0.568785	1.12422	0.813504	0	0	0.00733009	-0.254555	-1.5708	0.0504365	2.6309e-10	0	0
0.0399625	-0.165602	-0.000781799	-3.15291	-0.326084	0.932382	-0.00858924	-0.495594	0.0193257	-0.0319372	0.302672	0.250851	0	0	0.405127	0.00149964	-0.0356439	0.299951	0.0063188	0	0	-0.348139	-0.0402133	0.462274	0.310404	-0.650116	0.569266	1.11023	0.806958	0	0	0.0137655	-0.253035	-1.5708	0.0479317	8.66447e-10	0	0
0.0499531	-0.167744	-0.00763389	-3.17145	-0.328489	0.932051	-0.00875795	-0.490475	-0.0018751	-0.0298942	0.341654	0.219501	0	0	0.402329	0.00132384	-0.0588096	0.327284	-0.0124004	0	0	-0.347449	-0.0547377	0.479924	0.296177	-0.641649	0.570896	1.09495	0.799944	0	0	0.0202513	-0.251045	-1.5708	0.0456425	1.54819e-09	0	0
0.0599438	-0.169686	-0.014713	-3.18744	-0.331033	0.931773	-0.00859369	-0.483692	-0.0228034	-0.030791	0.382577	0.185313	0	0	0.399599	0.0026351	-0.0793426	0.35489	-0.0273546	0	0	-0.346133	-0.0684729	0.494744	0.281705	-0.632514	0.574194	1.07804	0.792198	0	0	0.0269475	-0.248476	-1.5708	0.0435219	2.32065e-09	0	0
0.0699344	-0.171462	-0.0219309	-3.20077	-0.333662	0.931568	-0.00810226	-0.474814	-0.0433799	-0.0345564	0.425956	0.148111	0	0	0.396806	0.00542368	-0.0970057	0.382618	-0.0378437	0	0	-0.344362	-0.0813086	0.506503	0.267323	-0.622668	0.579741	1.05925	0.783396	0	0	0.0340694	-0.245233	-1.5708	0.0415004	3.18095e-09	0	0
0.079925	-0.173121	-0.0291945	-3.21146	-0.336302	0.931457	-0.00731012	-0.46348	-0.0635294	-0.0408866	0.472168	0.107997	0	0	0.393752	0.00962311	-0.111692	0.410151	-0.0434654	0	0	-0.342381	-0.0931865	0.515075	0.253452	-0.6121	0.588148	1.03837	0.773165	0	0	0.041852	-0.241249	-1.5708	0.0394951	4.10292e-09	0	0
0.0899157	-0.174722	-0.0364255	-3.21962	-0.338867	0.931463	-0.00625641	-0.44945	-0.0831771	-0.0492931	0.521372	0.0653515	0	0	0.390176	0.0151408	-0.123422	0.437019	-0.0441548	0	0	-0.340466	-0.104101	0.5204	0.240553	-0.600809	0.600026	1.01526	0.761094	0	0	0.0505242	-0.236488	-1.5708	0.0374217	5.0287e-09	0	0
0.0999063	-0.17635	-0.0435654	-3.22545	-0.341271	0.93161	-0.00498751	-0.432635	-0.102245	-0.0591556	0.573466	0.0208123	0	0	0.385764	0.0218628	-0.13234	0.46265	-0.0401637	0	0	-0.338913	-0.114094	0.522477	0.229078	-0.588802	0.615971	0.989838	0.746757	0	0	0.0602886	-0.230942	-1.5708	0.035207	5.85927e-09	0	0
0.109897	-0.178107	-0.0505669	-3.2292	-0.343437	0.931925	-0.00355333	-0.413113	-0.120642	-0.0697915	0.628073	-0.0247823	0	0	0.380166	0.0296453	-0.138696	0.48644	-0.0320089	0	0	-0.338008	-0.123234	0.521362	0.219427	-0.576085	0.636545	0.962079	0.729719	0	0	0.0713052	-0.224631	-1.5708	0.0327962	6.44577e-09	0	0
0.119888	-0.180099	-0.0573826	-3.23116	-0.345305	0.932434	-0.00200471	-0.391087	-0.138255	-0.0805364	0.684581	-0.0704544	0	0	0.373042	0.0383076	-0.14281	0.507817	-0.0203987	0	0	-0.33799	-0.131596	0.517177	0.211901	-0.562661	0.662252	0.932013	0.709533	0	0	0.0836773	-0.217605	-1.5708	0.0301585	6.58088e-09	0	0
0.129878	-0.182404	-0.0639577	-3.23167	-0.346835	0.933164	-0.000391024	-0.366841	-0.15496	-0.0908074	0.742198	-0.115114	0	0	0.364101	0.0476353	-0.145036	0.52628	-0.00615562	0	0	-0.339009	-0.139245	0.510114	0.206663	-0.548523	0.693485	0.899735	0.685727	0	0	0.0974514	-0.209937	-1.5708	0.0272916	5.99321e-09	0	0
0.139869	-0.185053	-0.0702284	-3.23105	-0.348011	0.934138	0.00124234	-0.340689	-0.170613	-0.10014	0.800026	-0.157571	0	0	0.35314	0.0573899	-0.145735	0.541432	0.00987111	0	0	-0.341109	-0.146227	0.500437	0.203715	-0.533668	0.730488	0.865418	0.657833	0	0	0.112627	-0.201716	-1.5708	0.0242247	4.34547e-09	0	0
0.149859	-0.188008	-0.0761127	-3.22961	-0.348832	0.935373	0.00285669	-0.312928	-0.185052	-0.108188	0.857145	-0.196545	0	0	0.340069	0.0673089	-0.145243	0.552995	0.0268771	0	0	-0.34422	-0.152553	0.488472	0.202912	-0.518109	0.77334	0.829315	0.625408	0	0	0.129166	-0.193037	-1.5708	0.0210186	1.24061e-09	0	0
0.15985	-0.191177	-0.0814969	-3.22765	-0.349313	0.93688	0.00442218	-0.283822	-0.198078	-0.11472	0.912683	-0.230675	0	0	0.32492	0.0771046	-0.143842	0.560826	0.0441503	0	0	-0.348174	-0.158177	0.474602	0.203956	-0.501897	0.821893	0.791776	0.588128	0	0	0.147008	-0.183979	-1.5708	0.017761	-3.76177e-09	0	0
0.169841	-0.194411	-0.0862311	-3.22538	-0.349475	0.938661	0.00591859	-0.253586	-0.209454	-0.119613	0.965877	-0.258552	0	0	0.307842	0.0864677	-0.141736	0.56492	0.0611074	0	0	-0.352728	-0.162986	0.459256	0.206412	-0.485141	0.875731	0.753251	0.545854	0	0	0.166081	-0.174607	-1.5708	0.0145555	-1.11143e-08	0	0
0.179831	-0.197528	-0.0901458	-3.22294	-0.349348	0.940709	0.00733609	-0.222393	-0.218934	-0.122882	1.01608	-0.278866	0	0	0.289088	0.0950934	-0.139043	0.565406	0.0773051	0	0	-0.357592	-0.166821	0.442892	0.209715	-0.468013	0.934098	0.714305	0.498718	0	0	0.186324	-0.164966	-1.5708	0.0115097	-2.12326e-08	0	0
0.189822	-0.200339	-0.0930848	-3.22038	-0.348967	0.943004	0.00867569	-0.190402	-0.226317	-0.124702	1.0627	-0.290709	0	0	0.268975	0.102723	-0.135792	0.562518	0.0924296	0	0	-0.362468	-0.169511	0.425995	0.213167	-0.450767	0.995798	0.67562	0.447236	0	0	0.20771	-0.15508	-1.5708	0.00872093	-3.44218e-08	0	0
0.199813	-0.202672	-0.0949352	-3.21769	-0.348368	0.945516	0.00994827	-0.157788	-0.231494	-0.125398	1.1052	-0.293883	0	0	0.247835	0.109177	-0.131933	0.556562	0.106284	0	0	-0.367085	-0.170913	0.409085	0.215921	-0.433742	1.05909	0.637994	0.392439	0	0	0.230267	-0.144955	-1.5708	0.00626694	-5.07756e-08	0	0
0.209803	-0.204397	-0.0956445	-3.21477	-0.347591	0.948208	0.0111723	-0.124762	-0.234462	-0.125409	1.14308	-0.288993	0	0	0.22598	0.114369	-0.127361	0.547883	0.118776	0	0	-0.371234	-0.17094	0.392734	0.216986	-0.417366	1.12161	0.602323	0.335974	0	0	0.254095	-0.134574	-1.5708	0.00420024	-7.00447e-08	0	0
0.219794	-0.205436	-0.0952234	-3.21149	-0.34668	0.951035	0.0123709	-0.0915829	-0.235327	-0.125235	1.17585	-0.277283	0	0	0.203663	0.118302	-0.121943	0.536827	0.129901	0	0	-0.374773	-0.16958	0.377594	0.215222	-0.402145	1.18037	0.569566	0.28012	0	0	0.279364	-0.123894	-1.5708	0.00254565	-9.14735e-08	0	0
0.229784	-0.205775	-0.0937557	-3.20772	-0.345667	0.953951	0.0135556	-0.0585132	-0.234284	-0.125318	1.20317	-0.260332	0	0	0.181071	0.121041	-0.115597	0.523708	0.139686	0	0	-0.377678	-0.16686	0.363794	0.210187	-0.388372	1.23353	0.540267	0.226802	0	0	0.306045	-0.112992	-1.5708	0.00128616	-1.13609e-07	0	0
0.239775	-0.205454	-0.0913733	-3.20341	-0.344571	0.95691	0.0147312	-0.0258016	-0.231588	-0.126009	1.22481	-0.239763	0	0	0.158338	0.122692	-0.108305	0.508822	0.148192	0	0	-0.380006	-0.162828	0.35095	0.202107	-0.376114	1.28044	0.514556	0.177521	0	0	0.333887	-0.102058	-1.5708	0.000379396	-1.34088e-07	0	0
0.249766	-0.204645	-0.0882171	-3.19854	-0.34339	0.959868	0.0158969	0.00623629	-0.227516	-0.12754	1.24064	-0.21704	0	0	0.13546	0.123363	-0.10011	0.492438	0.155501	0	0	-0.382006	-0.157583	0.338615	0.191483	-0.365417	1.32097	0.492399	0.133334	0	0	0.362666	-0.0912834	-1.5708	-0.000229836	-1.49414e-07	0	0
0.259756	-0.203535	-0.0844558	-3.19313	-0.34213	0.962783	0.0170503	0.03729	-0.222374	-0.130072	1.25067	-0.193334	0	0	0.112403	0.123192	-0.0910824	0.474821	0.161737	0	0	-0.383894	-0.151282	0.326475	0.178776	-0.356304	1.35508	0.473631	0.095011	0	0	0.392202	-0.0808201	-1.5708	-0.000600501	-1.54754e-07	0	0
0.269747	-0.202313	-0.0802687	-3.18722	-0.340796	0.965608	0.0181864	0.0670709	-0.216474	-0.133689	1.25495	-0.169507	0	0	0.0891142	0.122325	-0.0813318	0.456233	0.167059	0	0	-0.385864	-0.144126	0.314347	0.164383	-0.34878	1.38275	0.458008	0.0630585	0	0	0.422361	-0.0707778	-1.5708	-0.000789278	-1.43789e-07	0	0
0.279738	-0.201167	-0.0758274	-3.1809	-0.339393	0.968298	0.019297	0.0953322	-0.210095	-0.138385	1.25365	-0.146152	0	0	0.0655435	0.120897	-0.0710129	0.436936	0.171649	0	0	-0.388085	-0.136341	0.302171	0.148659	-0.342829	1.40403	0.445247	0.0376275	0	0	0.453046	-0.0612173	-1.5708	-0.000846864	-1.08655e-07	0	0
